<svg width="14" height="16" viewBox="0 0 14 16" fill="none" xmlns="http://www.w3.org/2000/svg">
<path fill-rule="evenodd" clip-rule="evenodd" d="M10.0912 5.78199L6.35789 9.51532L3.90923 7.06665C3.80464 6.95255 3.74815 6.80247 3.75151 6.64773C3.75488 6.49298 3.81786 6.34551 3.9273 6.23606C4.03675 6.12661 4.18422 6.06364 4.33897 6.06027C4.49371 6.0569 4.64379 6.1134 4.75789 6.21798L6.35789 7.81799L9.24256 4.93332C9.29828 4.87759 9.36444 4.83339 9.43725 4.80323C9.51005 4.77308 9.58809 4.75755 9.66689 4.75755C9.7457 4.75755 9.82373 4.77308 9.89654 4.80323C9.96935 4.83339 10.0355 4.87759 10.0912 4.93332C10.147 4.98904 10.1912 5.0552 10.2213 5.128C10.2515 5.20081 10.267 5.27885 10.267 5.35765C10.267 5.43646 10.2515 5.51449 10.2213 5.5873C10.1912 5.66011 10.147 5.72626 10.0912 5.78199ZM13.0979 7.04665C13.1604 6.98414 13.1955 6.89937 13.1955 6.81099C13.1955 6.7226 13.1604 6.63783 13.0979 6.57532L12.1312 5.60865C12.0898 5.56732 12.06 5.51577 12.0449 5.45922C12.0298 5.40268 12.0299 5.34314 12.0452 5.28665L12.3986 3.96665C12.4214 3.88125 12.4093 3.7903 12.365 3.71378C12.3208 3.63727 12.248 3.58147 12.1626 3.55865L10.8426 3.20532C10.7859 3.19014 10.7342 3.16026 10.6928 3.1187C10.6513 3.07714 10.6216 3.02538 10.6066 2.96865L10.2532 1.64865C10.2303 1.56321 10.1743 1.49037 10.0977 1.44612C10.0211 1.40188 9.93005 1.38984 9.84456 1.41265L8.52389 1.76665C8.46744 1.78176 8.408 1.78171 8.35158 1.76649C8.29516 1.75127 8.24376 1.72143 8.20256 1.67998L7.23589 0.713318C7.17338 0.650828 7.08861 0.615723 7.00023 0.615723C6.91184 0.615723 6.82707 0.650828 6.76456 0.713318L5.79789 1.68065C5.75652 1.72204 5.705 1.75183 5.64848 1.76704C5.59197 1.78225 5.53245 1.78235 5.47589 1.76732L4.15589 1.41265C4.11356 1.40126 4.0694 1.39834 4.02594 1.40404C3.98248 1.40974 3.94057 1.42396 3.90261 1.44588C3.86465 1.46781 3.83138 1.497 3.80472 1.53179C3.77806 1.56659 3.75852 1.6063 3.74723 1.64865L3.39323 2.96865C3.37816 3.02518 3.34848 3.07675 3.30717 3.11817C3.26586 3.1596 3.21438 3.18943 3.15789 3.20465L1.83723 3.55865C1.75196 3.58161 1.67928 3.63748 1.63516 3.71397C1.59104 3.79047 1.57907 3.88134 1.60189 3.96665L1.95523 5.28665C1.97055 5.34314 1.97066 5.40268 1.95556 5.45922C1.94046 5.51577 1.91067 5.56732 1.86923 5.60865L0.90256 6.57532C0.871538 6.60623 0.846924 6.64295 0.830128 6.68339C0.813333 6.72384 0.804688 6.76719 0.804688 6.81099C0.804688 6.85478 0.813333 6.89813 0.830128 6.93858C0.846924 6.97902 0.871538 7.01574 0.90256 7.04665L1.86923 8.01332C1.91067 8.05479 1.94045 8.10645 1.95555 8.16311C1.97064 8.21976 1.97053 8.27939 1.95523 8.33598L1.60189 9.65598C1.57907 9.74129 1.59104 9.83217 1.63516 9.90867C1.67928 9.98516 1.75196 10.041 1.83723 10.064L3.15789 10.418C3.21438 10.4332 3.26586 10.463 3.30717 10.5045C3.34848 10.5459 3.37816 10.5975 3.39323 10.654L3.74656 11.974C3.75825 12.0168 3.77837 12.0568 3.80573 12.0917C3.83309 12.1266 3.86714 12.1557 3.90589 12.1773L2.66523 15.522H6.12056L6.99989 13.15L7.88056 15.522H11.3352L10.0946 12.1773C10.1333 12.1558 10.1673 12.1267 10.1946 12.0918C10.2218 12.0569 10.2418 12.0168 10.2532 11.974L10.6066 10.654C10.6216 10.5973 10.6514 10.5457 10.6928 10.5042C10.7343 10.4628 10.7859 10.433 10.8426 10.418L12.1626 10.0647C12.2049 10.0534 12.2446 10.0338 12.2794 10.0072C12.3142 9.98049 12.3434 9.94723 12.3653 9.90927C12.3872 9.87131 12.4015 9.8294 12.4072 9.78594C12.4129 9.74248 12.4099 9.69832 12.3986 9.65598L12.0452 8.33598C12.0299 8.2795 12.0298 8.21996 12.0449 8.16341C12.06 8.10686 12.0898 8.05531 12.1312 8.01398L13.0979 7.04732V7.04665Z" fill="#FFC117"/>
</svg>
