<svg width="396" height="132" viewBox="0 0 396 132" fill="none" xmlns="http://www.w3.org/2000/svg">
<rect y="12.9847" width="103.529" height="103.88" rx="28.9317" fill="#3692FF"/>
<path d="M49.9899 41.9063C51.2822 46.3722 47.8652 51.2933 43.9484 52.4344C40.0317 53.5754 34.6806 51.2088 33.3883 46.7428C32.096 42.2769 34.8089 36.089 38.7257 34.9479C43.9484 33.4264 48.6976 37.4403 49.9899 41.9063Z" fill="#222327"/>
<path d="M52.1436 41.9063C50.8513 46.3722 54.2683 51.2933 58.1851 52.4344C62.1019 53.5754 67.453 51.2088 68.7453 46.7428C70.0376 42.2769 67.3247 36.089 63.4079 34.9479C58.1851 33.4264 53.4359 37.4403 52.1436 41.9063Z" fill="#222327"/>
<path d="M76.3971 74.5325C76.3971 85.8918 65.2589 90.1141 50.0657 90.1141C34.8725 90.1141 23.9863 85.8918 23.9863 74.5325C23.9863 61.3192 34.8725 49.6018 50.0657 49.6018C65.2589 49.6018 76.3971 60.322 76.3971 74.5325Z" fill="#F3D6DD"/>
<path d="M45.0363 72.2897C45.0363 76.01 42.6483 80.0913 39.3114 80.0913C35.9744 80.0913 30.5838 77.06 30.5838 71.5026C30.5838 66.282 36.4072 64.4253 42.4247 65.3787C46.1129 65.963 45.0363 68.5694 45.0363 72.2897Z" fill="#222327"/>
<path d="M42.2451 71.9142C42.2451 72.4722 42.0773 72.9246 41.2381 72.9246C40.3989 72.9246 40.2311 72.4722 40.2311 71.9142C40.2311 71.3561 40.5668 70.9038 41.2381 70.9038C41.9095 70.9038 42.2451 71.3561 42.2451 71.9142Z" fill="white"/>
<path d="M55.1867 72.29C55.1867 76.0103 57.5747 80.0916 60.9117 80.0916C64.2487 80.0916 69.6392 77.0603 69.6392 71.5029C69.6392 66.2823 63.8158 64.4256 57.7983 65.3789C54.1101 65.9633 55.1867 68.5697 55.1867 72.29Z" fill="#222327"/>
<path d="M57.9809 71.9142C57.9809 72.4722 58.1487 72.9246 58.9879 72.9246C59.8271 72.9246 59.9949 72.4722 59.9949 71.9142C59.9949 71.3561 59.6593 70.9038 58.9879 70.9038C58.3166 70.9038 57.9809 71.3561 57.9809 71.9142Z" fill="white"/>
<path d="M46.2652 77.6709C46.062 77.3743 45.6568 77.2986 45.3603 77.5018C45.0637 77.705 44.988 78.1102 45.1912 78.4067L46.2652 77.6709ZM49.9987 76.8702L50.6145 76.6592C50.5244 76.396 50.2769 76.2192 49.9987 76.2192C49.7205 76.2192 49.4731 76.396 49.3829 76.6592L49.9987 76.8702ZM54.8062 78.4067C55.0094 78.1102 54.9337 77.705 54.6372 77.5018C54.3406 77.2986 53.9354 77.3743 53.7322 77.6709L54.8062 78.4067ZM45.1912 78.4067C45.3711 78.6692 45.6977 79.021 46.1357 79.3116C46.5778 79.6049 47.1683 79.8584 47.8635 79.8584V78.5565C47.491 78.5565 47.1474 78.4204 46.8554 78.2267C46.5594 78.0304 46.3523 77.7979 46.2652 77.6709L45.1912 78.4067ZM47.8635 79.8584C48.7189 79.8584 49.3552 79.2481 49.7512 78.7228C50.1693 78.168 50.4648 77.5182 50.6145 77.0811L49.3829 76.6592C49.2657 77.0012 49.0274 77.5201 48.7115 77.9392C48.3735 78.3876 48.0756 78.5565 47.8635 78.5565V79.8584ZM49.3829 77.0811C49.5326 77.5182 49.8281 78.168 50.2462 78.7228C50.6422 79.2481 51.2785 79.8584 52.134 79.8584V78.5565C51.9218 78.5565 51.6239 78.3876 51.2859 77.9392C50.97 77.5201 50.7317 77.0012 50.6145 76.6592L49.3829 77.0811ZM52.134 79.8584C52.8291 79.8584 53.4197 79.6049 53.8617 79.3116C54.2997 79.021 54.6264 78.6692 54.8062 78.4067L53.7322 77.6709C53.6452 77.7979 53.438 78.0304 53.142 78.2267C52.8501 78.4204 52.5065 78.5565 52.134 78.5565V79.8584Z" fill="#222327"/>
<path d="M53.5527 76.2695C53.5527 76.811 51.1145 77.5002 50.2939 77.7168C50.1186 77.7631 49.9377 77.7631 49.7623 77.7168C48.9417 77.5002 46.5035 76.811 46.5035 76.2695C46.5035 75.6184 48.4523 74.9222 50.0281 74.9222C51.6039 74.9222 53.5527 75.6184 53.5527 76.2695Z" fill="#222327"/>
<path d="M49.6069 58.9514C39.8125 58.9514 36.2131 55.5105 35.6307 53.4978L40.2895 48.4338L50.3834 46.6809L64.3596 53.4978C63.5184 55.1209 59.4122 58.9514 49.6069 58.9514Z" fill="#222327"/>
<path fill-rule="evenodd" clip-rule="evenodd" d="M50.9623 95.7635C71.2023 95.7635 86.0403 90.0591 86.0403 74.7128C86.0403 55.5145 71.2023 41.0316 50.9623 41.0316C30.7222 41.0316 16.2199 56.8618 16.2199 74.7128C16.2199 90.0591 30.7222 95.7635 50.9623 95.7635ZM50.1665 89.8699C65.0546 89.8699 75.9691 85.6925 75.9691 74.4543C75.9691 60.3952 65.0546 49.7893 50.1665 49.7893C35.2784 49.7893 24.6108 61.3818 24.6108 74.4543C24.6108 85.6925 35.2784 89.8699 50.1665 89.8699Z" fill="white"/>
<path d="M183.487 54.3351H191.448V63.6233H183.487V82.4651H171.545V70.7885C163.053 72.5135 154.627 73.4423 142.353 73.4423H128.421V64.3531H133.728V45.5113H129.748V36.5548H166.37V45.5113H162.389V63.358C165.64 62.9599 168.692 62.4955 171.545 61.9647V35.8914H183.487V54.3351ZM134.989 98.2551V78.5508H147.196V89.0332H184.813V98.2551H134.989ZM145.67 64.3531C147.329 64.2868 148.921 64.2868 150.447 64.2204V45.5113H145.67V64.3531ZM257.792 58.9792V68.2674H249.831V98.2551H237.889V87.839C229.397 90.2938 220.971 91.687 208.697 91.687H196.755V37.8817H230.724V46.8382H208.697V82.5978C220.839 82.5978 229.463 81.4036 237.889 79.0152V35.8914H249.831V58.9792H257.792ZM324.137 58.9792V68.2674H316.175V98.2551H304.233V35.8914H316.175V58.9792H324.137ZM263.1 91.687V37.8817H297.798V91.687H263.1ZM275.042 82.5978H285.989V46.9709H275.042V82.5978ZM374.89 35.8914H386.5V71.85H374.89V35.8914ZM325.464 64.7512C333.226 63.1589 339.064 60.7042 342.315 57.586L329.444 58.3821V49.7573H345.102V45.5113H330.771V36.5548H356.712V48.4968H360.493V36.2231H371.772V71.85H360.493V57.785H354.987C351.471 64.6185 342.647 70.2578 329.245 73.6413L325.464 64.7512ZM332.695 88.7679C349.082 88.1708 353.859 84.7872 353.859 79.0152V73.9731H365.801V80.0767C365.801 81.669 365.602 83.1949 365.204 84.5882C372.9 85.1189 380.529 86.1804 386.5 87.5737L383.316 98.2551C376.482 95.8667 366.929 93.5447 359.233 92.2841C353.726 95.9994 344.903 97.7907 333.956 98.2551L332.695 88.7679Z" fill="#3692FF"/>
</svg>
