<svg width="16" height="17" viewBox="0 0 16 17" fill="none" xmlns="http://www.w3.org/2000/svg">
<path d="M3.55694 9.81157C3.40722 9.68016 3.28746 9.57475 3.19967 9.49739V9.45147L3.02394 9.27574C2.33013 8.58193 1.93301 7.66547 1.93301 6.7V6.57612C1.99448 4.7062 3.59154 3.16667 5.46634 3.16667C5.74462 3.16667 6.11383 3.26344 6.48188 3.46162C6.82921 3.64864 7.13408 3.90383 7.33652 4.18842C7.63101 4.81494 8.53881 4.80366 8.8112 4.15457C8.97894 3.86092 9.27293 3.5955 9.62525 3.39902C9.99287 3.194 10.3593 3.1 10.5997 3.1C12.529 3.1 14.0714 4.62742 14.133 6.57581V6.7C14.133 7.74201 13.7296 8.64473 13.0609 9.25771L12.8663 9.43606V9.47957C12.7653 9.56525 12.6349 9.67766 12.4831 9.80974C12.1459 10.1029 11.6945 10.5 11.203 10.9332C11.0452 11.0722 10.8834 11.2149 10.7198 11.3592C9.86357 12.1143 8.95903 12.9119 8.34567 13.4417C8.16914 13.5861 7.89687 13.5861 7.72034 13.4417C6.98813 12.8093 5.82553 11.7962 4.83618 10.9316C4.34055 10.4984 3.88881 10.1029 3.55694 9.81157Z" stroke="#6B7280" stroke-width="1.2"/>
</svg>
