<svg width="20" height="18" viewBox="0 0 20 18" fill="none" xmlns="http://www.w3.org/2000/svg">
<path d="M3.53333 0.6C3.03627 0.6 2.63333 1.00294 2.63333 1.5C2.63333 1.99706 3.03627 2.4 3.53333 2.4V0.6ZM3.53333 2.4H13.6667V0.6H3.53333V2.4ZM18.1 6.83333V7.9H19.9V6.83333H18.1ZM13.6667 12.3333H3.53333V14.1333H13.6667V12.3333ZM18.1 7.9C18.1 10.3485 16.1151 12.3333 13.6667 12.3333V14.1333C17.1092 14.1333 19.9 11.3426 19.9 7.9H18.1ZM13.6667 2.4C16.1151 2.4 18.1 4.38487 18.1 6.83333H19.9C19.9 3.39076 17.1092 0.6 13.6667 0.6V2.4Z" fill="white"/>
<path d="M-1.86502e-07 13.2333L7.2 9.53829L7.2 16.9284L-1.86502e-07 13.2333Z" fill="white"/>
</svg>
