<svg width="21" height="18" viewBox="0 0 21 18" fill="none" xmlns="http://www.w3.org/2000/svg">
<path d="M4.03333 0.6C3.53627 0.6 3.13333 1.00294 3.13333 1.5C3.13333 1.99706 3.53627 2.4 4.03333 2.4V0.6ZM4.03333 2.4H14.1667V0.6H4.03333V2.4ZM18.6 6.83333V7.9H20.4V6.83333H18.6ZM14.1667 12.3333H4.03333V14.1333H14.1667V12.3333ZM18.6 7.9C18.6 10.3485 16.6151 12.3333 14.1667 12.3333V14.1333C17.6092 14.1333 20.4 11.3426 20.4 7.9H18.6ZM14.1667 2.4C16.6151 2.4 18.6 4.38487 18.6 6.83333H20.4C20.4 3.39076 17.6092 0.6 14.1667 0.6V2.4Z" fill="white"/>
<path d="M0.5 13.2333L7.7 9.53829L7.7 16.9284L0.5 13.2333Z" fill="white"/>
</svg>
