<svg width="16" height="17" viewBox="0 0 16 17" fill="none" xmlns="http://www.w3.org/2000/svg">
<path d="M3.55742 9.81157C3.40771 9.68016 3.28795 9.57475 3.20016 9.49739V9.45147L3.02443 9.27574C2.33062 8.58193 1.9335 7.66547 1.9335 6.7V6.57612C1.99496 4.7062 3.59203 3.16667 5.46683 3.16667C5.74511 3.16667 6.11432 3.26344 6.48237 3.46162C6.8297 3.64864 7.13457 3.90383 7.33701 4.18842C7.6315 4.81494 8.5393 4.80366 8.81169 4.15457C8.97943 3.86092 9.27342 3.5955 9.62574 3.39902C9.99336 3.194 10.3598 3.1 10.6002 3.1C12.5295 3.1 14.0718 4.62742 14.1335 6.57581V6.7C14.1335 7.74201 13.7301 8.64473 13.0614 9.25771L12.8668 9.43606V9.47957C12.7658 9.56525 12.6354 9.67766 12.4835 9.80974C12.1464 10.1029 11.695 10.5 11.2034 10.9332C11.0457 11.0722 10.8839 11.2149 10.7203 11.3592C9.86406 12.1143 8.95952 12.9119 8.34616 13.4417C8.16963 13.5861 7.89736 13.5861 7.72083 13.4417C6.98862 12.8093 5.82602 11.7962 4.83666 10.9316C4.34104 10.4984 3.88929 10.1029 3.55742 9.81157Z" stroke="#6B7280" stroke-width="1.2"/>
</svg>
