<svg width="28" height="24" viewBox="0 0 28 24" fill="none" xmlns="http://www.w3.org/2000/svg">
<path d="M4.12073 14.1482C4.11379 14.1421 4.10699 14.1361 4.10033 14.1302V14.0272L3.83672 13.7636C2.39601 12.3229 1.56699 10.4149 1.56699 8.4V8.14737C1.6926 4.24257 5.0215 1.03333 8.93366 1.03333C9.55108 1.03333 10.3382 1.24515 11.107 1.65909C11.8433 2.0556 12.4989 2.60339 12.9355 3.22713C13.4088 4.27379 14.9121 4.25737 15.3529 3.17788C15.7211 2.52332 16.3608 1.95126 17.1054 1.53603C17.8735 1.10766 18.6565 0.9 19.2003 0.9C23.2276 0.9 26.4411 4.09104 26.567 8.14692V8.4C26.567 10.563 25.7286 12.4504 24.3255 13.7366L24.0337 14.0041V14.0985C24.0196 14.1104 24.0052 14.1225 23.9905 14.1349C23.7825 14.3102 23.5002 14.5534 23.1639 14.8459C22.4905 15.4314 21.5884 16.225 20.6052 17.0915C20.2902 17.3692 19.9668 17.6543 19.6398 17.9427C17.926 19.454 16.1137 21.0522 14.8855 22.113C14.4209 22.4957 13.713 22.4957 13.2484 22.1129C11.7834 20.8477 9.45596 18.8195 7.47591 17.089C6.48455 16.2226 5.5809 15.4314 4.91695 14.8486C4.58489 14.5571 4.31325 14.3182 4.12073 14.1482Z" stroke="#6B7280" stroke-width="1.8"/>
</svg>
