<svg width="81" height="28" viewBox="0 0 81 28" fill="none" xmlns="http://www.w3.org/2000/svg">
<path d="M17.5757 9.36557H19.9999V12.1938H17.5757V17.9312H13.9394V14.3757C11.3535 14.9009 8.78785 15.1837 5.05049 15.1837H0.808078V12.4161H2.42424V6.67871H1.21212V3.95144H12.3636V6.67871H11.1515V12.113C12.1414 11.9918 13.0707 11.8504 13.9394 11.6888V3.74942H17.5757V9.36557ZM2.80807 22.7393V16.7393H6.52523V19.9312H17.9797V22.7393H2.80807ZM6.06059 12.4161C6.56564 12.3959 7.05048 12.3959 7.51513 12.3757V6.67871H6.06059V12.4161ZM40.2019 10.7797V13.608H37.7777V22.7393H34.1413V19.5676C31.5555 20.315 28.9898 20.7393 25.2524 20.7393H21.6161V4.35548H31.9595V7.08275H25.2524V17.9716C28.9494 17.9716 31.5757 17.608 34.1413 16.8807V3.74942H37.7777V10.7797H40.2019ZM60.4039 10.7797V13.608H57.9796V22.7393H54.3433V3.74942H57.9796V10.7797H60.4039ZM41.8181 20.7393V4.35548H52.3837V20.7393H41.8181ZM45.4544 17.9716H48.7877V7.12315H45.4544V17.9716ZM75.8584 3.74942H79.3937V14.6989H75.8584V3.74942ZM60.8079 12.5373C63.1715 12.0524 64.9493 11.305 65.9392 10.3555L62.02 10.5979V7.97163H66.7877V6.67871H62.4241V3.95144H70.323V7.58779H71.4745V3.85043H74.9089V14.6989H71.4745V10.4161H69.7978C68.7271 12.4969 66.0402 14.214 61.9594 15.2443L60.8079 12.5373ZM63.0099 19.8504C67.9998 19.6686 69.4543 18.6383 69.4543 16.8807V15.3453H73.0907V17.2039C73.0907 17.6888 73.0301 18.1534 72.9089 18.5777C75.2523 18.7393 77.5755 19.0625 79.3937 19.4867L78.424 22.7393C76.3432 22.012 73.4341 21.3049 71.0907 20.9211C69.4139 22.0524 66.7271 22.5979 63.3938 22.7393L63.0099 19.8504Z" fill="#3692FF"/>
</svg>
