<svg width="current" height="current" viewBox="0 0 14 13" fill="none" xmlns="http://www.w3.org/2000/svg">
<path d="M2.55694 7.81157C2.40722 7.68016 2.28746 7.57475 2.19967 7.49739V7.45147L2.02394 7.27574C1.33013 6.58193 0.933008 5.66547 0.933008 4.7V4.57612C0.994477 2.7062 2.59154 1.16667 4.46634 1.16667C4.74462 1.16667 5.11383 1.26344 5.48188 1.46162C5.82921 1.64864 6.13408 1.90383 6.33652 2.18842C6.63101 2.81494 7.53881 2.80366 7.8112 2.15457C7.97894 1.86092 8.27293 1.5955 8.62525 1.39902C8.99287 1.194 9.35933 1.1 9.59967 1.1C11.529 1.1 13.0714 2.62742 13.133 4.57581V4.7C13.133 5.74201 12.7296 6.64473 12.0609 7.25771L11.8663 7.43606V7.47957C11.7653 7.56525 11.6349 7.67766 11.4831 7.80974C11.1459 8.1029 10.6945 8.49999 10.203 8.93321C10.0452 9.0722 9.88341 9.21492 9.71981 9.35919C8.86357 10.1143 7.95903 10.9119 7.34567 11.4417C7.16914 11.5861 6.89687 11.5861 6.72034 11.4417C5.98813 10.8093 4.82553 9.7962 3.83618 8.93155C3.34055 8.4984 2.88881 8.10286 2.55694 7.81157Z" stroke="#6B7280" stroke-width="1.2"/>
</svg>
