<?xml version="1.0" standalone="no"?>
<!DOCTYPE svg PUBLIC "-//W3C//DTD SVG 20010904//EN"
 "http://www.w3.org/TR/2001/REC-SVG-20010904/DTD/svg10.dtd">
<svg version="1.0" xmlns="http://www.w3.org/2000/svg"
 width="256.000000pt" height="256.000000pt" viewBox="0 0 256.000000 256.000000"
 preserveAspectRatio="xMidYMid meet">

<g transform="translate(0.000000,256.000000) scale(0.100000,-0.100000)"
fill="#000000" stroke="none">
<path d="M1115 2104 c-233 -42 -468 -159 -690 -346 -107 -90 -278 -264 -360
-367 -84 -104 -83 -120 17 -242 91 -112 283 -302 390 -387 314 -247 649 -355
953 -309 221 35 449 141 663 309 107 85 299 275 390 387 100 122 101 138 17
242 -82 103 -253 277 -360 367 -337 283 -695 404 -1020 346z m399 -199 c170
-49 346 -150 522 -297 90 -76 239 -226 290 -293 l26 -35 -26 -35 c-51 -67
-200 -217 -290 -293 -175 -146 -349 -246 -522 -298 -79 -24 -105 -27 -234 -27
-129 0 -155 3 -234 27 -173 52 -347 152 -523 299 -88 74 -239 227 -290 295
l-25 32 25 33 c51 67 202 220 290 294 210 176 424 287 624 323 88 16 269 4
367 -25z"/>
<path d="M1165 1805 c-275 -61 -459 -327 -417 -601 53 -339 389 -543 712 -430
238 82 390 335 352 582 -49 312 -343 517 -647 449z m261 -199 c77 -35 145
-103 181 -180 24 -52 28 -74 28 -146 0 -72 -4 -94 -28 -146 -36 -77 -104 -145
-182 -181 -51 -24 -73 -28 -145 -28 -72 0 -94 4 -145 28 -78 36 -146 104 -182
181 -24 52 -28 74 -28 146 0 72 4 94 28 145 86 183 293 263 473 181z"/>
</g>
</svg>
