<svg width="188" height="152" viewBox="0 0 188 152" fill="none" xmlns="http://www.w3.org/2000/svg">
<path d="M75.9346 31.6911C79.4538 40.7826 73.1871 51.6827 65.1866 54.7796C57.1861 57.8765 45.5429 53.9089 42.0237 44.8174C38.5046 35.726 43.0658 22.3084 51.0663 19.2116C61.7344 15.0821 72.4155 22.5996 75.9346 31.6911Z" fill="#D1D5DB"/>
<path d="M80.4459 31.2996C78.5489 40.8621 86.6031 50.5169 95.0181 52.1862C103.433 53.8556 114.217 47.9378 116.114 38.3753C118.011 28.8128 111.202 16.3841 102.787 14.7147C91.5659 12.4887 82.3429 21.7371 80.4459 31.2996Z" fill="#D1D5DB"/>
<path d="M163.164 101.017C163.164 133.188 131.953 145.146 89.3793 145.146C46.8056 145.146 16.3008 133.188 16.3008 101.017C16.3008 63.5947 46.8056 30.4092 89.3793 30.4092C131.953 30.4092 163.164 60.7704 163.164 101.017Z" fill="#F3F4F6"/>
<path d="M143.13 100.646C143.13 124.23 121.263 132.996 91.4356 132.996C61.6082 132.996 40.2363 124.23 40.2363 100.646C40.2363 73.2127 61.6082 48.8852 91.4356 48.8852C121.263 48.8852 143.13 71.1423 143.13 100.646Z" fill="#F9FAFB"/>
<path d="M88.619 97.356C88.619 105.155 83.8633 113.711 77.2174 113.711C70.5716 113.711 59.8359 107.356 59.8359 95.7059C59.8359 84.7618 71.4337 80.8695 83.418 82.8681C90.7632 84.093 88.619 89.5569 88.619 97.356Z" fill="#D1D5DB"/>
<path d="M83.0599 96.568C83.0599 97.7378 82.7257 98.6862 81.0544 98.6862C79.3831 98.6862 79.0488 97.7378 79.0488 96.568C79.0488 95.3981 79.7173 94.4498 81.0544 94.4498C82.3914 94.4498 83.0599 95.3981 83.0599 96.568Z" fill="#F3F4F6"/>
<path d="M108.286 97.356C108.286 105.155 112.694 113.711 118.853 113.711C125.013 113.711 134.964 107.356 134.964 95.7059C134.964 84.7618 124.214 80.8695 113.106 82.8681C106.298 84.093 108.286 89.5569 108.286 97.356Z" fill="#D1D5DB"/>
<path d="M113.438 96.568C113.438 97.7378 113.748 98.6862 115.297 98.6862C116.846 98.6862 117.156 97.7378 117.156 96.568C117.156 95.3981 116.537 94.4498 115.297 94.4498C114.058 94.4498 113.438 95.3981 113.438 96.568Z" fill="#F3F4F6"/>
<path d="M91.0602 108.715C90.6769 108.158 89.9143 108.017 89.3568 108.4C88.7994 108.783 88.6581 109.546 89.0414 110.103L91.0602 108.715ZM99.0335 106.959L100.192 106.561C100.022 106.067 99.5566 105.735 99.0335 105.735C98.5105 105.735 98.0452 106.067 97.8751 106.561L99.0335 106.959ZM109.026 110.103C109.409 109.546 109.268 108.783 108.71 108.4C108.153 108.017 107.39 108.158 107.007 108.715L109.026 110.103ZM89.0414 110.103C89.4097 110.639 90.0837 111.364 90.9893 111.962C91.9025 112.566 93.1168 113.084 94.5422 113.084V110.634C93.7218 110.634 92.9711 110.336 92.3404 109.919C91.7021 109.497 91.2533 108.996 91.0602 108.715L89.0414 110.103ZM94.5422 113.084C96.2684 113.084 97.5691 111.855 98.3964 110.761C99.2649 109.612 99.8804 108.264 100.192 107.358L97.8751 106.561C97.6253 107.288 97.1179 108.39 96.4424 109.283C95.7258 110.23 95.0616 110.634 94.5422 110.634V113.084ZM97.8751 107.358C98.1867 108.264 98.8021 109.612 99.6706 110.761C100.498 111.855 101.799 113.084 103.525 113.084V110.634C103.005 110.634 102.341 110.23 101.625 109.283C100.949 108.39 100.442 107.288 100.192 106.561L97.8751 107.358ZM103.525 113.084C104.95 113.084 106.165 112.566 107.078 111.962C107.983 111.364 108.657 110.639 109.026 110.103L107.007 108.715C106.814 108.996 106.365 109.497 105.727 109.919C105.096 110.336 104.345 110.634 103.525 110.634V113.084Z" fill="#D1D5DB"/>
<path d="M106.512 105.701C106.512 106.849 101.264 108.314 99.599 108.75C99.2699 108.837 98.9268 108.837 98.5976 108.75C96.9323 108.314 91.6846 106.849 91.6846 105.701C91.6846 104.336 95.7837 102.877 99.0983 102.877C102.413 102.877 106.512 104.336 106.512 105.701Z" fill="#D1D5DB"/>
<path d="M100.187 68.2275C68.6756 70.2087 60.9898 60.1497 59.8369 55.9055L77.5142 46.0479L97.4972 42.3513L125.166 56.727C123.501 60.1497 119.565 67.0092 100.187 68.2275Z" fill="#D1D5DB"/>
<path fill-rule="evenodd" clip-rule="evenodd" d="M93.201 145.248C133.571 145.248 163.166 133.289 163.166 101.118C163.166 60.8722 133.571 30.511 93.201 30.511C52.8311 30.511 23.9053 63.6965 23.9053 101.118C23.9053 133.289 52.8311 145.248 93.201 145.248ZM91.6154 132.892C121.311 132.892 143.08 124.135 143.08 100.576C143.08 71.1031 121.311 48.8695 91.6154 48.8695C61.9202 48.8695 40.6431 73.1714 40.6431 100.576C40.6431 124.135 61.9202 132.892 91.6154 132.892Z" fill="#F3F4F6"/>
<path fill-rule="evenodd" clip-rule="evenodd" d="M7.38824 74.6709C11.8652 69.658 19.9342 70.4896 23.2947 76.3101L28.2163 84.8346C31.5768 90.6551 28.2624 98.0589 21.6827 99.4296L19.5427 99.8753C19.4201 99.9009 19.2975 99.924 19.1749 99.9448C19.1287 100.072 19.0701 100.196 19.0013 100.314C17.0527 103.664 16.125 111.381 25.726 120.312C35.0809 129.014 43.1679 129.647 46.8905 128.718C47.1544 128.652 47.4285 128.633 47.693 128.666L48.1802 127.7C51.2071 121.7 59.2164 120.414 63.9689 125.167L70.9291 132.127C75.6815 136.88 74.3963 144.889 68.3956 147.916L67.9461 148.142C67.8228 148.338 67.6469 148.508 67.4182 148.632C55.5661 155.064 28.9229 151.955 14.3493 131.689C-3.89153 106.322 -2.05391 84.7549 5.13824 77.0594C5.26092 76.9281 5.40062 76.8273 5.5501 76.7558C5.6723 76.6012 5.79968 76.4497 5.93221 76.3013L7.38824 74.6709Z" fill="#D1D5DB"/>
<path d="M148.707 28.108C150.663 23.6605 152.401 22.8017 155.078 22.4C157.148 22.0822 158.85 21.6027 159.562 19.9855C160.273 18.3682 159.439 16.7732 157.859 16.0781C156.315 15.3991 154.396 15.8712 153.551 17.6928L147.707 15.1223C150.157 9.75158 155.231 9.08789 160.046 11.2057C165.375 13.5499 168.103 17.8203 166.05 22.4883C164.692 25.5758 162.197 26.7596 159.088 27.1466C156.585 27.4498 155.145 28.1321 154.11 30.4845L153.884 30.9991L148.481 28.6225L148.707 28.108ZM147.54 38.3418C145.702 37.5334 144.842 35.4004 145.703 33.542C146.458 31.7248 148.612 30.9174 150.45 31.7258C152.214 32.5018 153.111 34.651 152.356 36.4682C151.494 38.3266 149.304 39.1178 147.54 38.3418Z" fill="#D1D5DB"/>
<path d="M165.904 41.7191C168.489 39.0522 169.962 38.8988 171.987 39.3227C173.555 39.6452 174.902 39.7542 175.842 38.7844C176.782 37.8147 176.608 36.4501 175.66 35.5318C174.735 34.6348 173.234 34.4631 172.145 35.5437L168.64 32.1481C171.824 28.9509 175.636 29.8241 178.523 32.6218C181.719 35.7184 182.538 39.5037 179.826 42.3028C178.032 44.1541 175.929 44.3392 173.598 43.7899C171.725 43.342 170.511 43.4479 169.144 44.8585L168.845 45.167L165.605 42.0277L165.904 41.7191ZM162.347 48.742C161.245 47.6742 161.196 45.917 162.307 44.8143C163.331 43.713 165.089 43.707 166.191 44.7748C167.249 45.7999 167.321 47.5785 166.296 48.6798C165.185 49.7825 163.405 49.7671 162.347 48.742Z" fill="#D1D5DB"/>
</svg>
