<svg width="40" height="40" viewBox="0 0 40 40" fill="none" xmlns="http://www.w3.org/2000/svg"><g clip-path="url(#clip0_9967_1304)"><circle cx="20" cy="20" r="20" fill="#E5E7EB"/><path d="M19.4496 10.6081C19.8749 12.0779 18.7504 13.6975 17.4613 14.073C16.1722 14.4486 14.4111 13.6697 13.9858 12.1999C13.5605 10.7301 14.4534 8.69357 15.7424 8.31802C17.4613 7.81726 19.0243 9.1383 19.4496 10.6081Z" fill="white"/><path d="M20.1583 10.6081C19.733 12.0779 20.8575 13.6975 22.1466 14.073C23.4357 14.4486 25.1968 13.6697 25.6221 12.1999C26.0474 10.7301 25.1546 8.69357 23.8655 8.31802C22.1466 7.81726 20.5836 9.1383 20.1583 10.6081Z" fill="white"/><path d="M28.1387 21.3459C28.1387 25.0844 24.473 26.474 19.4727 26.474C14.4724 26.474 10.8896 25.0844 10.8896 21.3459C10.8896 16.9972 14.4724 13.1409 19.4727 13.1409C24.473 13.1409 28.1387 16.669 28.1387 21.3459Z" fill="white"/><path d="M17.8183 20.6073C17.8183 21.8317 17.0324 23.1749 15.9341 23.1749C14.8359 23.1749 13.0618 22.1772 13.0618 20.3482C13.0618 18.6301 14.9783 18.019 16.9588 18.3328C18.1726 18.5251 17.8183 19.3829 17.8183 20.6073Z" fill="#E5E7EB"/><path d="M16.9002 20.4832C16.9002 20.6668 16.8449 20.8157 16.5687 20.8157C16.2925 20.8157 16.2373 20.6668 16.2373 20.4832C16.2373 20.2995 16.3478 20.1506 16.5687 20.1506C16.7897 20.1506 16.9002 20.2995 16.9002 20.4832Z" fill="white"/><path d="M21.159 20.6075C21.159 21.8319 21.9449 23.1751 23.0432 23.1751C24.1414 23.1751 25.9155 22.1775 25.9155 20.3485C25.9155 18.6303 23.999 18.0192 22.0185 18.333C20.8047 18.5253 21.159 19.3831 21.159 20.6075Z" fill="#E5E7EB"/><path d="M22.0779 20.4835C22.0779 20.6672 22.1331 20.8161 22.4093 20.8161C22.6855 20.8161 22.7407 20.6672 22.7407 20.4835C22.7407 20.2999 22.6302 20.151 22.4093 20.151C22.1883 20.151 22.0779 20.2999 22.0779 20.4835Z" fill="white"/><path fill-rule="evenodd" clip-rule="evenodd" d="M19.7689 28.334C26.4301 28.334 31.3135 26.4566 31.3135 21.4059C31.3135 15.0876 26.4301 10.321 19.7689 10.321C13.1076 10.321 8.33472 15.5309 8.33472 21.4059C8.33472 26.4566 13.1076 28.334 19.7689 28.334ZM19.5067 26.3944C24.4065 26.3944 27.9986 25.0195 27.9986 21.3209C27.9986 16.6939 24.4065 13.2033 19.5067 13.2033C14.6068 13.2033 11.0959 17.0186 11.0959 21.3209C11.0959 25.0195 14.6068 26.3944 19.5067 26.3944Z" fill="white"/><mask id="mask0_9967_1304" style="mask-type:alpha" maskUnits="userSpaceOnUse" x="0" y="0" width="40" height="40"><circle cx="20" cy="20" r="20" fill="#E5E7EB"/></mask><g mask="url(#mask0_9967_1304)"><ellipse cx="19.5833" cy="37.5" rx="11.25" ry="12.5" fill="white"/></g></g><defs><clipPath id="clip0_9967_1304"><rect width="40" height="40" fill="white"/></clipPath></defs></svg>
