<svg width="252" height="329" viewBox="0 0 252 329" fill="none" xmlns="http://www.w3.org/2000/svg">
<path d="M49.4673 180.691C53.0941 200.897 76.884 203.358 88.9732 202.71L116.822 242.216C116.39 246.534 101.74 265.143 47.8566 245.455C-13.669 222.974 -4.22524 168.663 12.5519 161.262C34.5716 151.547 44.9338 155.433 49.4673 180.691Z" fill="#222327"/>
<path d="M251.976 140.977C251.976 192.006 202.471 210.974 134.942 210.974C67.4137 210.974 19.0283 192.006 19.0283 140.977C19.0283 81.6206 67.4137 28.9834 134.942 28.9834C202.471 28.9834 251.976 77.1408 251.976 140.977Z" fill="white"/>
<path d="M73.4302 270.31C73.4302 248.563 81.3121 215.751 88.3258 202.063H186.119C192.927 214.209 199.554 244.862 199.059 270.31C198.44 302.12 165.64 304.433 135.316 305.59C104.992 306.747 73.4302 297.493 73.4302 270.31Z" fill="white"/>
<path d="M85.4857 311.917C79.2586 300.504 73.4298 294.027 73.4298 266.179L114.794 278.146C121.319 278.04 134.721 280.4 136.128 290.692C137.886 303.557 131.991 319.48 129.167 321.381C126.908 322.901 119.115 322.565 115.501 322.208L101.626 319.588C96.5412 321.914 91.1084 322.222 85.4857 311.917Z" fill="white"/>
<path d="M186.916 311.917C193.143 300.504 198.972 294.027 198.972 266.179L157.607 278.146C151.082 278.04 137.68 280.4 136.274 290.692C134.515 303.557 140.41 319.48 143.234 321.381C145.494 322.901 153.287 322.565 156.901 322.208L170.776 319.588C175.86 321.914 181.293 322.222 186.916 311.917Z" fill="white"/>
<path d="M88.6577 207.244L84.7719 206.596L81.5337 215.015L82.1813 219.549L88.6577 207.244Z" fill="#222327"/>
<path d="M130.422 320.472C130.422 326.269 125.32 329 109.439 329C93.5579 329 83.7925 326.925 83.7925 321.128C83.7925 315.332 84.8287 308.923 106.46 308.923C122.341 308.923 130.422 314.676 130.422 320.472Z" fill="white"/>
<path d="M143.375 320.472C143.375 326.269 148.477 329 164.358 329C180.239 329 190.005 326.925 190.005 321.128C190.005 315.332 188.969 308.923 167.338 308.923C151.457 308.923 143.375 314.676 143.375 320.472Z" fill="white"/>
<rect x="165.964" y="210.677" width="46.6299" height="59.4172" rx="23.315" transform="rotate(-21.5019 165.964 210.677)" fill="#222327"/>
<path d="M131.692 31.4017C136.004 46.2516 124.604 62.6148 111.536 66.409C98.4679 70.2033 80.6147 62.3338 76.3031 47.484C71.9914 32.6341 81.0427 12.0586 94.1106 8.26437C111.536 3.20498 127.381 16.5518 131.692 31.4017Z" fill="#222327"/>
<path d="M138.876 31.4022C134.564 46.2521 145.965 62.6153 159.033 66.4095C172.1 70.2037 189.954 62.3343 194.265 47.4845C198.577 32.6346 189.526 12.0591 176.458 8.26486C159.033 3.20547 143.188 16.5523 138.876 31.4022Z" fill="#222327"/>
<path d="M218.377 140.116C218.377 177.484 181.962 191.374 132.29 191.374C82.6175 191.374 47.0264 177.484 47.0264 140.116C47.0264 96.6482 82.6175 58.1016 132.29 58.1016C181.962 58.1016 218.377 93.3676 218.377 140.116Z" fill="#F3D6DD"/>
<path d="M115.172 132.431C115.172 144.801 107.205 158.372 96.0716 158.372C84.9381 158.372 66.9531 148.293 66.9531 129.813C66.9531 112.454 86.3823 106.281 106.459 109.451C118.764 111.394 115.172 120.06 115.172 132.431Z" fill="#222327"/>
<path d="M105.857 131.181C105.857 133.036 105.297 134.54 102.498 134.54C99.6977 134.54 99.1377 133.036 99.1377 131.181C99.1377 129.325 100.258 127.821 102.498 127.821C104.737 127.821 105.857 129.325 105.857 131.181Z" fill="white"/>
<path d="M149.043 132.431C149.043 144.801 157.01 158.372 168.144 158.372C179.277 158.372 197.262 148.293 197.262 129.813C197.262 112.454 177.833 106.281 157.756 109.451C145.451 111.394 149.043 120.06 149.043 132.431Z" fill="#222327"/>
<path d="M158.358 131.181C158.358 133.036 158.918 134.54 161.718 134.54C164.518 134.54 165.078 133.036 165.078 131.181C165.078 129.325 163.958 127.821 161.718 127.821C159.478 127.821 158.358 129.325 158.358 131.181Z" fill="white"/>
<path d="M119.07 150.446C118.462 149.562 117.252 149.338 116.368 149.946C115.484 150.554 115.26 151.763 115.868 152.648L119.07 150.446ZM131.717 147.661L133.554 147.03C133.284 146.245 132.546 145.718 131.717 145.718C130.887 145.718 130.149 146.245 129.879 147.03L131.717 147.661ZM147.566 152.648C148.174 151.763 147.95 150.554 147.066 149.946C146.181 149.338 144.972 149.562 144.364 150.446L147.566 152.648ZM115.868 152.648C116.452 153.497 117.521 154.647 118.957 155.596C120.406 156.554 122.332 157.376 124.593 157.376V153.49C123.292 153.49 122.101 153.016 121.1 152.355C120.088 151.685 119.376 150.892 119.07 150.446L115.868 152.648ZM124.593 157.376C127.331 157.376 129.394 155.426 130.706 153.69C132.084 151.869 133.06 149.73 133.554 148.293L129.879 147.03C129.483 148.183 128.678 149.93 127.607 151.346C126.47 152.849 125.417 153.49 124.593 153.49V157.376ZM129.879 148.293C130.374 149.73 131.35 151.869 132.727 153.69C134.04 155.426 136.103 157.376 138.841 157.376V153.49C138.017 153.49 136.963 152.849 135.827 151.346C134.755 149.93 133.951 148.183 133.554 147.03L129.879 148.293ZM138.841 157.376C141.102 157.376 143.028 156.554 144.476 155.596C145.913 154.647 146.982 153.497 147.566 152.648L144.364 150.446C144.057 150.892 143.346 151.685 142.333 152.355C141.333 153.016 140.142 153.49 138.841 153.49V157.376Z" fill="#222327"/>
<path d="M143.578 145.664C143.578 147.486 135.255 149.81 132.613 150.501C132.091 150.638 131.547 150.638 131.025 150.501C128.383 149.81 120.06 147.486 120.06 145.664C120.06 143.499 126.561 141.185 131.819 141.185C137.076 141.185 143.578 143.499 143.578 145.664Z" fill="#222327"/>
<path d="M130.422 88.0785C97.744 88.0785 85.7349 76.6369 83.792 69.9447L99.3353 53.1061L133.012 47.2773L179.642 69.9447C176.836 75.3416 163.136 88.0785 130.422 88.0785Z" fill="#222327"/>
<path fill-rule="evenodd" clip-rule="evenodd" d="M134.942 211.134C202.471 211.134 251.976 192.166 251.976 141.138C251.976 77.301 202.471 29.1436 134.942 29.1436C67.4137 29.1436 19.0283 81.7808 19.0283 141.138C19.0283 192.166 67.4137 211.134 134.942 211.134ZM132.291 191.535C181.963 191.535 218.378 177.644 218.378 140.276C218.378 93.528 181.963 58.2619 132.291 58.2619C82.6181 58.2619 47.027 96.8085 47.027 140.276C47.027 177.644 82.6181 191.535 132.291 191.535Z" fill="white"/>
<path fill-rule="evenodd" clip-rule="evenodd" d="M187.827 207.244C172.174 210.669 154.299 212.228 134.942 212.228C117.259 212.228 100.888 210.927 86.3555 208.091C79.9156 223.494 73.4302 252.325 73.4302 272.051C73.4302 299.234 104.992 308.488 135.316 307.331C165.64 306.175 198.44 303.861 199.059 272.051C199.512 248.742 193.99 221.065 187.827 207.244Z" fill="white"/>
<path fill-rule="evenodd" clip-rule="evenodd" d="M73.4302 265.578C86.7044 270.336 107.067 274.175 136.116 273.303C161.192 272.551 182.425 269.442 198.933 265.798C198.6 243.635 193.423 218.801 187.693 205.949C172.039 209.374 154.164 210.932 134.808 210.932C117.124 210.932 100.754 209.632 86.2207 206.795C80.3245 220.898 74.3902 246.257 73.4302 265.578Z" fill="#222327"/>
<path d="M162.804 243.512C165.773 216.844 179.322 209.307 192.059 205.637C197.24 204.145 205.66 204.342 210.193 206.285C215.681 208.637 221.851 213.409 226.384 224.419C230.918 235.429 236.635 251.931 239.226 268.769L239.26 268.994C241.852 285.837 245.804 311.514 194.223 311.514C151.725 311.514 160.102 267.785 162.804 243.512Z" fill="#3786E2"/>
<path d="M183.208 259.664C171.939 253.434 167.855 239.248 174.085 227.979L176.488 223.632C181.697 214.211 192.678 209.581 203.06 212.429L207.302 213.592C221.736 217.552 228.753 233.892 221.686 247.085L218.706 252.649C212.476 263.918 198.29 268.002 187.021 261.772L183.208 259.664Z" fill="#222327"/>
<path d="M81.5339 226.673C79.4615 229.264 76.5688 245.887 75.0576 253.226C74.41 253.226 70.5241 252.147 69.8765 251.931C69.2288 244.16 75.0576 226.673 81.5339 226.673Z" fill="#1A1A1C"/>
<rect x="114.563" y="217.606" width="6.47638" height="19.4291" rx="3.23819" fill="white"/>
<path fill-rule="evenodd" clip-rule="evenodd" d="M114.563 233.149V233.797C114.563 235.586 116.013 237.035 117.802 237.035C119.59 237.035 121.04 235.586 121.04 233.797V233.149H114.563Z" fill="#256FC5"/>
<rect x="146.945" y="217.606" width="6.47638" height="19.4291" rx="3.23819" fill="white"/>
<path fill-rule="evenodd" clip-rule="evenodd" d="M146.945 233.149V233.797C146.945 235.586 148.395 237.035 150.184 237.035C151.972 237.035 153.422 235.586 153.422 233.797V233.149H146.945Z" fill="#256FC5"/>
<path d="M135.288 309.571C133.345 324.467 128.164 327.057 122.982 327.705L124.925 315.4C127.516 311.946 136.293 301.864 135.288 309.571Z" fill="white"/>
<path d="M136.663 309.814C138.606 324.71 144.355 328.676 156.012 328.676L147.025 315.643C144.434 312.189 135.658 302.108 136.663 309.814Z" fill="white"/>
<path fill-rule="evenodd" clip-rule="evenodd" d="M213.471 280.466C215.044 282.26 215.94 284.658 216.164 287.494C216.601 293.011 211.375 295.488 204.025 296.069C196.675 296.65 191.247 295.015 190.811 289.498C190.606 286.904 191.078 284.469 192.279 282.444C192.037 282.169 191.839 281.851 191.705 281.495C191.02 279.684 191.947 277.025 193.541 276.422C195.251 275.776 196.95 276.626 197.906 277.925C199.244 277.429 200.778 277.096 202.514 276.959C204.203 276.826 205.735 276.885 207.11 277.121C207.776 275.539 209.413 274.238 211.332 274.635C213.001 274.98 214.335 277.46 213.943 279.356C213.859 279.763 213.694 280.135 213.471 280.466Z" fill="#2D68AE"/>
<path d="M201.594 286.982C201.72 288.582 200.869 290.416 199.485 290.526C198.101 290.635 195.762 289.508 195.573 287.117C195.395 284.871 197.747 283.881 200.275 284.094C201.825 284.224 201.467 285.381 201.594 286.982Z" fill="#3475C2"/>
<path d="M198.986 286.948C199.011 287.261 199.126 287.508 199.599 287.471C200.072 287.433 200.146 287.172 200.122 286.858C200.097 286.545 199.887 286.305 199.509 286.335C199.131 286.365 198.962 286.634 198.986 286.948Z" fill="white"/>
<path d="M205.121 286.703C205.247 288.303 206.377 289.981 207.761 289.872C209.145 289.762 211.277 288.281 211.088 285.89C210.91 283.644 208.432 283.036 205.969 283.644C204.459 284.016 204.994 285.102 205.121 286.703Z" fill="#3475C2"/>
<path d="M207.69 286.26C207.715 286.573 207.641 286.835 207.168 286.872C206.695 286.909 206.58 286.663 206.555 286.349C206.53 286.036 206.699 285.767 207.078 285.737C207.456 285.707 207.666 285.946 207.69 286.26Z" fill="white"/>
</svg>
