<svg width="168" height="168" viewBox="0 0 168 168" fill="none" xmlns="http://www.w3.org/2000/svg">
<rect width="168" height="168" rx="12" fill="#F3F4F6"/>
<path d="M70 66H98" stroke="#9CA3AF" stroke-width="4" stroke-linecap="round"/>
<path d="M84 80V52" stroke="#9CA3AF" stroke-width="4" stroke-linecap="round"/>
<path d="M59.0156 107.375V121.297H57.7812V107.375H59.0156ZM51.625 108.453C53.6875 108.469 55.1719 110.344 55.1719 113.297C55.1719 116.25 53.6875 118.125 51.625 118.125C49.5469 118.125 48.0781 116.25 48.0781 113.297C48.0781 110.344 49.5469 108.469 51.625 108.453ZM51.625 109.547C50.2344 109.562 49.2656 111.031 49.2656 113.297C49.2656 115.562 50.2344 117.031 51.625 117.031C53.0156 117.031 53.9844 115.562 53.9844 113.297C53.9844 111.031 53.0156 109.562 51.625 109.547ZM68.625 108.75V117.781H62.2031V108.75H68.625ZM63.4062 109.734V116.781H67.4219V109.734H63.4062ZM72.8438 107.375V121.297H71.6094V107.375H72.8438ZM80.1875 111.641C80.1875 114 81.9062 116.391 83.9531 117.281L83.2656 118.25C81.6406 117.508 80.2344 115.906 79.5938 113.984C78.9375 116.023 77.5391 117.797 75.9531 118.594L75.2188 117.625C77.2031 116.672 78.9375 114.047 78.9531 111.641V109.828H75.6719V108.812H83.5V109.828H80.1875V111.641ZM86.6719 107.375V121.266H85.4375V107.375H86.6719ZM105.734 113.984V115.016H93.0625V113.984H105.734ZM104.25 111.656V112.656H94.6719V107.938H104.156V108.969H95.875V111.656H104.25ZM99.3906 116.234C102.375 116.234 104.156 117.141 104.172 118.734C104.156 120.344 102.375 121.234 99.3906 121.234C96.3906 121.234 94.5938 120.344 94.5938 118.734C94.5938 117.141 96.3906 116.234 99.3906 116.234ZM99.3906 117.188C97.1562 117.203 95.8281 117.766 95.8438 118.734C95.8281 119.719 97.1562 120.266 99.3906 120.266C101.594 120.266 102.938 119.719 102.938 118.734C102.938 117.766 101.594 117.203 99.3906 117.188ZM119.594 115.031V116.047H106.875V115.031H112.625V113.562H108.531V110.172H116.719V108.734H108.484V107.734H117.953V111.094H109.75V112.578H118.25V113.562H113.828V115.031H119.594ZM118.031 117.109V121.141H116.797V118.109H108.297V117.109H118.031Z" fill="#9CA3AF"/>
</svg>
