<svg width="996" height="540" viewBox="0 0 996 540" fill="none" xmlns="http://www.w3.org/2000/svg">
<g clip-path="url(#clip0_14331_9639)">
<ellipse cx="497" cy="559" rx="499" ry="197" fill="#E3A578"/>
<ellipse cx="497" cy="559" rx="499" ry="197" fill="url(#paint0_linear_14331_9639)"/>
<path d="M319.371 438.35C308.971 440.35 303.538 432.85 301.871 429.85L322.871 409.35L334.871 420.85C336.871 425.35 333.371 435.658 319.371 438.35Z" fill="white"/>
<path d="M258.115 154.982C263.472 168.82 253.933 185.412 241.755 190.126C229.577 194.84 211.854 188.801 206.497 174.962C201.141 161.123 208.084 140.7 220.262 135.986C236.5 129.7 252.758 141.143 258.115 154.982Z" fill="#222327"/>
<path d="M264.981 154.385C262.094 168.94 274.353 183.636 287.162 186.177C299.971 188.718 316.385 179.711 319.273 165.155C322.16 150.599 311.796 131.681 298.987 129.14C281.907 125.751 267.869 139.829 264.981 154.385Z" fill="#222327"/>
<path d="M390.893 260.504C390.893 309.474 343.385 327.677 278.581 327.677C213.777 327.677 167.344 309.474 167.344 260.504C167.344 203.543 213.777 153.029 278.581 153.029C343.385 153.029 390.893 199.243 390.893 260.504Z" fill="white"/>
<path d="M233.609 384.619C233.609 363.75 240.315 332.261 246.282 319.125H329.478C335.27 330.781 340.908 360.198 340.486 384.619C339.96 415.145 312.056 417.365 286.258 418.475C260.46 419.585 233.609 410.705 233.609 384.619Z" fill="white"/>
<rect x="308.352" y="327.392" width="44.7486" height="57.0199" rx="22.3743" transform="rotate(-21.5019 308.352 327.392)" fill="#222327"/>
<path d="M306.808 431.388C294.719 428.298 286.359 428.157 266.799 409.946L302.254 388.719C306.446 384.067 316.867 376.197 325.016 381.939C335.202 389.117 342.531 403.67 342.019 406.896C341.609 409.477 336.278 414.731 333.663 417.036L322.75 425.068C321.058 430.16 317.723 434.178 306.808 431.388Z" fill="white"/>
<path d="M337.726 397.875C346.918 408.98 345.349 414.313 342.416 418.375L335.044 408.964C334.312 404.886 332.971 392.129 337.726 397.875Z" fill="white"/>
<path d="M320.103 414.33C319.109 415.822 298.765 426.553 294 428.625C294.622 429.868 303.102 428.812 308.916 426.139C315.5 423.112 321.346 412.466 320.103 414.33Z" fill="#F2F2F2"/>
<path d="M246.974 395.363C253.927 385.328 257.002 377.636 279.731 366.373L285.652 407.211C288.214 412.847 291.37 425.465 283.504 430.851C273.671 437.585 258.44 438.894 255.818 437.205C253.72 435.853 251.038 428.936 249.959 425.646L246.835 412.511C243.009 409.027 240.696 404.424 246.974 395.363Z" fill="white"/>
<path d="M263.021 438.246C249.272 442.579 243.495 439.18 238.781 429.035L253.758 431.585C257.812 432.443 270.135 436.004 263.021 438.246Z" fill="white"/>
<path d="M315 399.612C321.634 423.017 308.495 429.626 255.203 440.21L257.911 417.339L283.5 399.612C299.503 390.457 311.885 388.624 315 399.612Z" fill="white"/>
<path d="M259.807 439.641C251.311 443.59 242.372 440.515 235.949 426.694C229.527 412.873 229.953 401.642 238.449 397.694C246.946 393.746 255.753 392.287 264.501 411.112C270.923 424.933 272.949 433.534 259.807 439.641Z" fill="white"/>
<path d="M252.591 433.85C248.677 435.154 242.587 430.571 240.665 424.802C238.388 417.963 238.937 412.483 244 410.797C248.539 409.285 255.543 409.292 258.646 418.606C260.923 425.445 259.264 431.627 252.591 433.85Z" fill="#222327"/>
<path fill-rule="evenodd" clip-rule="evenodd" d="M233.508 383.714C245.323 386.39 260.77 388.087 280.399 387.491C304.137 386.771 324.244 383.798 339.891 380.311C339.612 359.037 335.227 335.192 330.372 322.854C317.117 326.141 301.98 327.637 285.589 327.637C270.614 327.637 256.751 326.389 244.444 323.667C239.118 338.105 233.754 364.838 233.508 383.714Z" fill="#222327"/>
<path d="M305.319 358.902C308.167 333.311 321.17 326.078 333.393 322.556C338.365 321.123 346.445 321.313 350.795 323.177C356.062 325.435 361.983 330.014 366.333 340.58C370.684 351.145 376.17 366.982 378.656 383.141L378.69 383.357C381.177 399.52 384.97 424.16 335.47 424.16C294.686 424.16 302.726 382.196 305.319 358.902Z" fill="#3786E2"/>
<path d="M324.899 374.402C314.085 368.423 310.165 354.81 316.144 343.996L318.45 339.824C323.449 330.783 333.987 326.34 343.95 329.073L348.021 330.189C361.872 333.989 368.607 349.67 361.825 362.331L358.965 367.67C352.986 378.484 339.373 382.404 328.559 376.425L324.899 374.402Z" fill="#222327"/>
<path d="M339.539 392.901C340.197 394.64 338.985 396.708 337.455 397.287C335.925 397.865 333.711 397.092 333.054 395.353C332.397 393.614 333.286 391.063 334.817 390.484C336.857 389.713 338.882 391.162 339.539 392.901Z" fill="#2D68AE"/>
<path d="M347.605 391.898C347.229 393.718 348.75 395.571 350.352 395.902C351.954 396.233 354.018 395.121 354.394 393.3C354.77 391.48 353.491 389.1 351.889 388.769C349.753 388.328 347.981 390.078 347.605 391.898Z" fill="#2D68AE"/>
<path d="M356.527 401.109C356.945 406.404 351.93 408.781 344.877 409.338C337.824 409.896 332.615 408.327 332.196 403.032C331.709 396.874 335.198 391.65 343.427 390.999C351.656 390.349 356.003 394.485 356.527 401.109Z" fill="#2D68AE"/>
<path d="M342.544 400.618C342.666 402.154 341.848 403.914 340.52 404.019C339.192 404.124 336.948 403.042 336.766 400.747C336.596 398.592 338.853 397.642 341.279 397.846C342.766 397.972 342.423 399.082 342.544 400.618Z" fill="#3475C2"/>
<path d="M340.042 400.585C340.065 400.886 340.175 401.122 340.629 401.087C341.083 401.051 341.155 400.8 341.131 400.499C341.107 400.198 340.906 399.968 340.543 399.997C340.18 400.026 340.018 400.284 340.042 400.585Z" fill="white"/>
<path d="M345.929 400.35C346.05 401.886 347.134 403.496 348.462 403.391C349.79 403.286 351.836 401.865 351.655 399.57C351.485 397.415 349.106 396.832 346.742 397.415C345.294 397.772 345.807 398.814 345.929 400.35Z" fill="#3475C2"/>
<path d="M348.394 399.925C348.418 400.226 348.346 400.477 347.893 400.513C347.439 400.549 347.329 400.312 347.305 400.011C347.281 399.71 347.443 399.452 347.806 399.423C348.17 399.395 348.37 399.624 348.394 399.925Z" fill="white"/>
<path d="M360.395 259.939C360.395 295.837 327.111 309.181 281.709 309.181C236.307 309.181 203.775 295.837 203.775 259.939C203.775 218.181 236.307 181.151 281.709 181.151C327.111 181.151 360.395 215.029 360.395 259.939Z" fill="#F3D6DD"/>
<path d="M277.422 254.933C277.422 266.804 270.183 279.827 260.067 279.827C249.951 279.827 233.609 270.155 233.609 252.421C233.609 235.762 251.263 229.838 269.505 232.88C280.686 234.744 277.422 243.061 277.422 254.933Z" fill="#222327"/>
<path d="M268.959 253.733C268.959 255.514 268.45 256.958 265.906 256.958C263.362 256.958 262.854 255.514 262.854 253.733C262.854 251.953 263.871 250.509 265.906 250.509C267.941 250.509 268.959 251.953 268.959 253.733Z" fill="white"/>
<path d="M307.358 254.933C307.358 266.804 314.068 279.827 323.444 279.827C332.82 279.827 347.967 270.155 347.967 252.421C347.967 235.762 331.604 229.838 314.696 232.88C304.333 234.744 307.358 243.061 307.358 254.933Z" fill="#222327"/>
<path d="M315.202 253.733C315.202 255.514 315.674 256.958 318.032 256.958C320.39 256.958 320.861 255.514 320.861 253.733C320.861 251.953 319.918 250.509 318.032 250.509C316.145 250.509 315.202 251.953 315.202 253.733Z" fill="white"/>
<path d="M281.138 272.222C280.555 271.373 279.394 271.158 278.545 271.741C277.697 272.325 277.482 273.486 278.065 274.334L281.138 272.222ZM293.275 269.549L295.038 268.943C294.779 268.19 294.071 267.684 293.275 267.684C292.479 267.684 291.77 268.19 291.511 268.943L293.275 269.549ZM308.484 274.334C309.068 273.486 308.853 272.325 308.004 271.741C307.156 271.158 305.995 271.373 305.411 272.222L308.484 274.334ZM278.065 274.334C278.626 275.15 279.652 276.252 281.03 277.164C282.42 278.083 284.269 278.871 286.438 278.871V275.142C285.189 275.142 284.047 274.688 283.087 274.053C282.115 273.411 281.432 272.649 281.138 272.222L278.065 274.334ZM286.438 278.871C289.066 278.871 291.046 277 292.305 275.335C293.627 273.587 294.564 271.534 295.038 270.155L291.511 268.943C291.131 270.049 290.359 271.726 289.331 273.085C288.24 274.528 287.229 275.142 286.438 275.142V278.871ZM291.511 270.155C291.986 271.534 292.923 273.587 294.244 275.335C295.504 277 297.484 278.871 300.111 278.871V275.142C299.321 275.142 298.31 274.528 297.219 273.085C296.191 271.726 295.418 270.049 295.038 268.943L291.511 270.155ZM300.111 278.871C302.281 278.871 304.129 278.083 305.519 277.164C306.898 276.252 307.924 275.15 308.484 274.334L305.411 272.222C305.118 272.649 304.434 273.411 303.463 274.053C302.503 274.688 301.36 275.142 300.111 275.142V278.871Z" fill="#222327"/>
<path d="M304.658 267.633C304.658 269.381 296.67 271.611 294.135 272.275C293.634 272.406 293.112 272.406 292.611 272.275C290.076 271.611 282.088 269.381 282.088 267.633C282.088 265.555 288.327 263.334 293.373 263.334C298.418 263.334 304.658 265.555 304.658 267.633Z" fill="#222327"/>
<path d="M295.029 210.594C247.063 213.61 235.364 198.299 233.609 191.838L260.517 176.833L290.934 171.207L333.051 193.089C330.516 198.299 324.525 208.74 295.029 210.594Z" fill="#222327"/>
<path fill-rule="evenodd" clip-rule="evenodd" d="M284.395 327.83C345.845 327.83 390.893 309.628 390.893 260.658C390.893 199.397 345.845 153.183 284.395 153.183C222.946 153.183 178.916 203.696 178.916 260.658C178.916 309.628 222.946 327.83 284.395 327.83ZM281.982 309.022C327.183 309.022 360.319 295.692 360.319 259.832C360.319 214.97 327.183 181.126 281.982 181.126C236.781 181.126 204.394 218.118 204.394 259.832C204.394 295.692 236.781 309.022 281.982 309.022Z" fill="white"/>
<path d="M214.342 301.723C225.372 318.256 240.445 323.476 251.011 326.583L276.108 360.492C275.694 364.636 261.635 382.494 209.926 363.6C150.882 342.026 159.945 289.907 176.046 282.804C197.177 273.481 206.647 290.189 214.342 301.723Z" fill="#222327"/>
<rect x="259.025" y="334.042" width="6.21508" height="18.6452" rx="3.10754" fill="white"/>
<path fill-rule="evenodd" clip-rule="evenodd" d="M259.025 348.958V349.579C259.025 351.295 260.417 352.687 262.133 352.687C263.849 352.687 265.24 351.295 265.24 349.579V348.958H259.025Z" fill="#256FC5"/>
<rect x="288.301" y="334.042" width="6.21508" height="18.6452" rx="3.10754" fill="white"/>
<path fill-rule="evenodd" clip-rule="evenodd" d="M288.301 348.958V349.579C288.301 351.295 289.692 352.687 291.408 352.687C293.125 352.687 294.516 351.295 294.516 349.579V348.958H288.301Z" fill="#256FC5"/>
<path d="M241.84 404.458C242.712 404.134 243.787 404.859 244.24 406.078C244.694 407.297 245.061 408.285 243.481 408.873C241.9 409.46 241.533 408.472 241.08 407.253C240.627 406.034 240.967 404.782 241.84 404.458Z" fill="#222327"/>
<path d="M237.415 406.736C238.196 406.229 239.403 406.703 240.111 407.795C240.818 408.886 241.392 409.771 239.977 410.688C238.562 411.605 237.989 410.72 237.281 409.629C236.574 408.538 236.634 407.242 237.415 406.736Z" fill="#222327"/>
<path d="M247.144 403.173C246.214 403.207 245.498 404.288 245.545 405.588C245.592 406.887 245.63 407.941 247.315 407.88C249 407.819 248.962 406.765 248.914 405.465C248.867 404.165 248.075 403.139 247.144 403.173Z" fill="#222327"/>
<path d="M699.521 456.35C709.921 458.35 715.355 450.85 717.021 447.85L696.021 427.35L684.021 438.85C682.021 443.35 685.521 453.658 699.521 456.35Z" fill="white"/>
<path d="M760.777 172.982C755.421 186.82 764.96 203.412 777.138 208.126C789.316 212.84 807.038 206.801 812.395 192.962C817.752 179.123 810.809 158.7 798.631 153.986C782.392 147.7 766.134 159.143 760.777 172.982Z" fill="#222327"/>
<path d="M753.912 172.385C756.799 186.94 744.539 201.636 731.73 204.177C718.921 206.718 702.507 197.711 699.62 183.155C696.732 168.599 707.096 149.681 719.905 147.14C736.985 143.751 751.024 157.829 753.912 172.385Z" fill="#222327"/>
<path d="M628 278.504C628 327.474 675.508 345.677 740.312 345.677C805.116 345.677 851.549 327.474 851.549 278.504C851.549 221.543 805.116 171.029 740.312 171.029C675.508 171.029 628 217.243 628 278.504Z" fill="white"/>
<path d="M785.285 402.619C785.285 381.75 778.58 350.261 772.613 337.125H689.416C683.625 348.781 677.987 378.198 678.408 402.619C678.935 433.145 706.838 435.365 732.636 436.475C758.434 437.585 785.285 428.705 785.285 402.619Z" fill="white"/>
<rect width="44.7486" height="57.0199" rx="22.3743" transform="matrix(-0.930405 -0.366532 -0.366532 0.930405 710.541 345.392)" fill="#222327"/>
<path d="M712.087 449.388C724.175 446.298 732.535 446.157 752.095 427.946L716.641 406.719C712.449 402.067 702.027 394.197 693.878 399.939C683.692 407.117 676.363 421.67 676.876 424.896C677.285 427.477 682.617 432.731 685.231 435.036L696.145 443.068C697.836 448.16 701.172 452.178 712.087 449.388Z" fill="white"/>
<path d="M681.168 415.875C671.977 426.98 673.545 432.313 676.478 436.375L683.85 426.964C684.582 422.886 685.924 410.129 681.168 415.875Z" fill="white"/>
<path d="M698.791 432.33C699.786 433.822 720.13 444.553 724.895 446.625C724.273 447.868 715.792 446.812 709.978 444.139C703.395 441.112 697.548 430.466 698.791 432.33Z" fill="#F2F2F2"/>
<path d="M771.918 413.363C764.965 403.328 761.89 395.636 739.162 384.373L733.241 425.211C730.679 430.847 727.522 443.465 735.389 448.851C745.222 455.585 760.453 456.894 763.075 455.205C765.173 453.853 767.855 446.936 768.933 443.646L772.058 430.511C775.884 427.027 778.196 422.424 771.918 413.363Z" fill="white"/>
<path d="M755.871 456.246C769.62 460.579 775.397 457.18 780.112 447.035L765.134 449.585C761.081 450.443 748.758 454.004 755.871 456.246Z" fill="white"/>
<path d="M703.893 417.612C697.258 441.017 710.397 447.626 763.689 458.21L760.982 435.339L735.393 417.612C719.39 408.457 707.008 406.624 703.893 417.612Z" fill="white"/>
<path d="M759.085 457.641C767.582 461.59 776.521 458.515 782.943 444.694C789.366 430.873 788.94 419.642 780.443 415.694C771.947 411.746 763.14 410.287 754.392 429.112C747.969 442.933 745.943 451.534 759.085 457.641Z" fill="white"/>
<path d="M766.302 451.85C770.216 453.154 776.306 448.571 778.227 442.802C780.505 435.963 779.956 430.483 774.893 428.797C770.353 427.285 763.349 427.292 760.247 436.606C757.969 443.445 759.628 449.627 766.302 451.85Z" fill="#222327"/>
<path fill-rule="evenodd" clip-rule="evenodd" d="M785.385 401.714C773.57 404.39 758.122 406.087 738.494 405.491C714.756 404.771 694.648 401.798 679.002 398.311C679.281 377.037 683.666 353.192 688.52 340.854C701.776 344.141 716.913 345.637 733.304 345.637C748.279 345.637 762.142 344.389 774.448 341.667C779.775 356.105 785.138 382.838 785.385 401.714Z" fill="#222327"/>
<path d="M713.574 376.902C710.725 351.311 697.722 344.078 685.499 340.556C680.527 339.123 672.448 339.313 668.097 341.177C662.83 343.435 656.91 348.014 652.559 358.58C648.209 369.145 642.722 384.982 640.236 401.141L640.203 401.357C637.715 417.52 633.923 442.16 683.423 442.16C724.206 442.16 716.167 400.196 713.574 376.902Z" fill="#3786E2"/>
<path d="M693.993 392.402C704.808 386.423 708.727 372.81 702.749 361.996L700.442 357.824C695.444 348.783 684.905 344.34 674.943 347.073L670.872 348.189C657.02 351.989 650.286 367.67 657.068 380.331L659.927 385.67C665.906 396.484 679.52 400.404 690.334 394.425L693.993 392.402Z" fill="#222327"/>
<path d="M679.353 410.901C678.696 412.64 679.907 414.708 681.437 415.287C682.967 415.865 685.181 415.092 685.838 413.353C686.496 411.614 685.606 409.063 684.076 408.484C682.036 407.713 680.011 409.162 679.353 410.901Z" fill="#2D68AE"/>
<path d="M671.288 409.898C671.664 411.718 670.143 413.571 668.541 413.902C666.939 414.233 664.874 413.121 664.498 411.3C664.122 409.48 665.402 407.1 667.004 406.769C669.14 406.328 670.912 408.078 671.288 409.898Z" fill="#2D68AE"/>
<path d="M662.366 419.109C661.947 424.404 666.962 426.781 674.016 427.338C681.069 427.896 686.278 426.327 686.697 421.032C687.184 414.874 683.695 409.65 675.465 408.999C667.236 408.349 662.89 412.485 662.366 419.109Z" fill="#2D68AE"/>
<path d="M676.348 418.618C676.227 420.154 677.044 421.914 678.372 422.019C679.7 422.124 681.945 421.042 682.126 418.747C682.297 416.592 680.04 415.642 677.613 415.846C676.127 415.972 676.47 417.082 676.348 418.618Z" fill="#3475C2"/>
<path d="M678.851 418.585C678.827 418.886 678.717 419.122 678.263 419.087C677.809 419.051 677.738 418.8 677.762 418.499C677.785 418.198 677.986 417.968 678.349 417.997C678.713 418.026 678.875 418.284 678.851 418.585Z" fill="white"/>
<path d="M672.964 418.35C672.843 419.886 671.759 421.496 670.431 421.391C669.103 421.286 667.056 419.865 667.238 417.57C667.408 415.415 669.786 414.832 672.15 415.415C673.599 415.772 673.085 416.814 672.964 418.35Z" fill="#3475C2"/>
<path d="M670.498 417.925C670.475 418.226 670.546 418.477 671 418.513C671.454 418.549 671.564 418.312 671.588 418.011C671.612 417.71 671.449 417.452 671.086 417.423C670.723 417.395 670.522 417.624 670.498 417.925Z" fill="white"/>
<path d="M658.497 277.939C658.497 313.837 691.782 327.181 737.184 327.181C782.586 327.181 815.117 313.837 815.117 277.939C815.117 236.181 782.586 199.151 737.184 199.151C691.782 199.151 658.497 233.029 658.497 277.939Z" fill="#F3D6DD"/>
<path d="M741.471 272.933C741.471 284.804 748.71 297.827 758.826 297.827C768.942 297.827 785.283 288.155 785.283 270.421C785.283 253.762 767.63 247.838 749.388 250.88C738.207 252.744 741.471 261.061 741.471 272.933Z" fill="#222327"/>
<path d="M711.534 272.933C711.534 284.804 704.825 297.827 695.448 297.827C686.072 297.827 670.926 288.155 670.926 270.421C670.926 253.762 687.288 247.838 704.196 250.88C714.559 252.744 711.534 261.061 711.534 272.933Z" fill="#222327"/>
<path d="M737.755 290.222C738.338 289.373 739.499 289.158 740.347 289.741C741.196 290.325 741.411 291.486 740.827 292.334L737.755 290.222ZM725.618 287.549L723.855 286.943C724.113 286.19 724.822 285.684 725.618 285.684C726.414 285.684 727.122 286.19 727.381 286.943L725.618 287.549ZM710.408 292.334C709.825 291.486 710.04 290.325 710.888 289.741C711.737 289.158 712.898 289.373 713.481 290.222L710.408 292.334ZM740.827 292.334C740.267 293.15 739.241 294.252 737.862 295.164C736.472 296.083 734.624 296.871 732.454 296.871V293.142C733.703 293.142 734.846 292.688 735.806 292.053C736.777 291.411 737.461 290.649 737.755 290.222L740.827 292.334ZM732.454 296.871C729.827 296.871 727.847 295 726.588 293.335C725.266 291.587 724.329 289.534 723.855 288.155L727.381 286.943C727.761 288.049 728.534 289.726 729.562 291.085C730.653 292.528 731.664 293.142 732.454 293.142V296.871ZM727.381 288.155C726.907 289.534 725.97 291.587 724.648 293.335C723.389 295 721.409 296.871 718.781 296.871V293.142C719.572 293.142 720.583 292.528 721.674 291.085C722.702 289.726 723.474 288.049 723.855 286.943L727.381 288.155ZM718.781 296.871C716.612 296.871 714.763 296.083 713.373 295.164C711.995 294.252 710.969 293.15 710.408 292.334L713.481 290.222C713.775 290.649 714.458 291.411 715.43 292.053C716.39 292.688 717.533 293.142 718.781 293.142V296.871Z" fill="#222327"/>
<path d="M714.235 285.633C714.235 287.381 722.223 289.611 724.758 290.275C725.259 290.406 725.781 290.406 726.282 290.275C728.817 289.611 736.805 287.381 736.805 285.633C736.805 283.555 730.565 281.334 725.52 281.334C720.474 281.334 714.235 283.555 714.235 285.633Z" fill="#222327"/>
<path d="M723.864 228.594C771.829 231.61 783.528 216.299 785.283 209.838L758.376 194.833L727.958 189.207L685.842 211.089C688.377 216.299 694.367 226.74 723.864 228.594Z" fill="#222327"/>
<path fill-rule="evenodd" clip-rule="evenodd" d="M734.497 345.83C673.048 345.83 627.999 327.628 627.999 278.658C627.999 217.397 673.048 171.183 734.497 171.183C795.947 171.183 839.977 221.696 839.977 278.658C839.977 327.628 795.947 345.83 734.497 345.83ZM736.911 327.022C691.71 327.022 658.573 313.692 658.573 277.832C658.573 232.97 691.71 199.126 736.911 199.126C782.112 199.126 814.499 236.118 814.499 277.832C814.499 313.692 782.112 327.022 736.911 327.022Z" fill="white"/>
<path d="M801 327.5C789.97 344.033 778.448 341.476 767.882 344.584L742.785 378.492C743.199 382.636 757.258 400.494 808.967 381.6C868.011 360.026 854.5 300.5 835 296C803.441 288.717 808.695 315.966 801 327.5Z" fill="#222327"/>
<rect width="6.21508" height="18.6452" rx="3.10754" transform="matrix(-1 0 0 1 759.869 352.042)" fill="white"/>
<path fill-rule="evenodd" clip-rule="evenodd" d="M759.869 366.958V367.579C759.869 369.295 758.478 370.687 756.762 370.687C755.045 370.687 753.654 369.295 753.654 367.579V366.958H759.869Z" fill="#256FC5"/>
<rect width="6.21508" height="18.6452" rx="3.10754" transform="matrix(-1 0 0 1 730.592 352.042)" fill="white"/>
<path fill-rule="evenodd" clip-rule="evenodd" d="M730.592 366.958V367.579C730.592 369.295 729.201 370.687 727.484 370.687C725.768 370.687 724.377 369.295 724.377 367.579V366.958H730.592Z" fill="#256FC5"/>
<path d="M777.053 422.458C776.18 422.134 775.105 422.859 774.652 424.078C774.199 425.297 773.832 426.285 775.412 426.873C776.992 427.46 777.36 426.472 777.813 425.253C778.266 424.034 777.926 422.782 777.053 422.458Z" fill="#222327"/>
<path d="M781.478 424.736C780.696 424.229 779.489 424.703 778.782 425.795C778.074 426.886 777.501 427.771 778.915 428.688C780.33 429.605 780.904 428.72 781.611 427.629C782.319 426.538 782.259 425.242 781.478 424.736Z" fill="#222327"/>
<path d="M771.748 421.173C772.679 421.207 773.395 422.288 773.348 423.588C773.3 424.887 773.262 425.941 771.577 425.88C769.893 425.819 769.931 424.765 769.978 423.465C770.025 422.165 770.818 421.139 771.748 421.173Z" fill="#222327"/>
<path d="M752.936 271.486C753.143 270.657 754.8 269 757.286 269C759.772 269 761.429 270.657 762.258 271.486" stroke="white" stroke-width="2.98324" stroke-linecap="round"/>
<path d="M706.322 271.486C706.115 270.657 704.458 269 701.972 269C699.486 269 697.828 270.657 697 271.486" stroke="white" stroke-width="2.98324" stroke-linecap="round"/>
<path fill-rule="evenodd" clip-rule="evenodd" d="M399 68C385.745 68 375 78.7452 375 92V144C375 157.255 385.745 168 399 168H397.5V191.5L438 168H544C557.255 168 568 157.255 568 144V92C568 78.7452 557.255 68 544 68H399Z" fill="#97C7FF"/>
<circle cx="424" cy="118" r="25" fill="#52A2FF"/>
<ellipse cx="424" cy="114.5" rx="2" ry="3.5" fill="#1E86FF"/>
<ellipse cx="439.5" cy="115" rx="1.5" ry="3" fill="#1E86FF"/>
<path fill-rule="evenodd" clip-rule="evenodd" d="M426.748 121.275C426.498 127.915 426.635 133.327 431 133.5C435.365 133.673 438.263 128.382 438.644 121.747L426.748 121.275Z" fill="#1E86FF"/>
<rect x="462" y="95" width="76" height="9" rx="4.5" fill="#52A2FF"/>
<rect x="462" y="113" width="51" height="9" rx="4.5" fill="#52A2FF"/>
<rect x="462" y="131" width="34" height="9" rx="4.5" fill="#52A2FF"/>
<path fill-rule="evenodd" clip-rule="evenodd" d="M594 180C607.255 180 618 190.745 618 204V247C618 260.255 607.255 271 594 271H595.5V294.5L555 271H449C435.745 271 425 260.255 425 247V204C425 190.745 435.745 180 449 180H594Z" fill="#97C7FF"/>
<path d="M451.352 212.417C452.339 210.043 455.702 210.043 456.689 212.417L458.237 216.137C458.653 217.138 459.594 217.821 460.675 217.908L464.691 218.23C467.253 218.435 468.293 221.634 466.34 223.306L463.28 225.927C462.457 226.633 462.098 227.739 462.349 228.793L463.284 232.712C463.88 235.213 461.16 237.19 458.965 235.85L455.527 233.75C454.602 233.185 453.439 233.185 452.514 233.75L449.076 235.85C446.881 237.19 444.161 235.213 444.757 232.712L445.692 228.793C445.944 227.739 445.584 226.633 444.761 225.927L441.701 223.306C439.749 221.634 440.788 218.435 443.351 218.23L447.367 217.908C448.447 217.821 449.388 217.138 449.805 216.137L451.352 212.417Z" fill="#52A2FF"/>
<path d="M486.045 212.417C487.032 210.043 490.395 210.043 491.383 212.417L492.93 216.137C493.346 217.138 494.287 217.821 495.368 217.908L499.384 218.23C501.947 218.435 502.986 221.634 501.033 223.306L497.974 225.927C497.15 226.633 496.791 227.739 497.042 228.793L497.977 232.712C498.574 235.213 495.853 237.19 493.659 235.85L490.221 233.75C489.296 233.185 488.132 233.185 487.207 233.75L483.769 235.85C481.575 237.19 478.854 235.213 479.451 232.712L480.385 228.793C480.637 227.739 480.277 226.633 479.454 225.927L476.395 223.306C474.442 221.634 475.481 218.435 478.044 218.23L482.06 217.908C483.14 217.821 484.082 217.138 484.498 216.137L486.045 212.417Z" fill="#52A2FF"/>
<path d="M518.999 212.2C520 209.864 523.311 209.864 524.312 212.2L526.009 216.159C526.433 217.148 527.37 217.819 528.442 217.903L532.687 218.233C535.274 218.434 536.306 221.678 534.311 223.337L531.205 225.92C530.354 226.627 529.982 227.758 530.246 228.832L531.217 232.783C531.829 235.272 529.14 237.266 526.936 235.96L523.13 233.703C522.221 233.164 521.09 233.164 520.181 233.703L516.375 235.96C514.171 237.266 511.482 235.272 512.094 232.783L513.065 228.832C513.329 227.758 512.957 226.627 512.106 225.92L509 223.337C507.005 221.678 508.037 218.434 510.624 218.233L514.869 217.903C515.941 217.819 516.878 217.148 517.302 216.159L518.999 212.2Z" fill="#52A2FF"/>
<path d="M551.93 212.417C552.917 210.043 556.28 210.043 557.268 212.417L558.815 216.137C559.231 217.138 560.172 217.821 561.253 217.908L565.269 218.23C567.832 218.435 568.871 221.634 566.918 223.306L563.858 225.927C563.035 226.633 562.676 227.739 562.927 228.793L563.862 232.712C564.459 235.213 561.738 237.19 559.544 235.85L556.105 233.75C555.18 233.185 554.017 233.185 553.092 233.75L549.654 235.85C547.46 237.19 544.739 235.213 545.335 232.712L546.27 228.793C546.522 227.739 546.162 226.633 545.339 225.927L542.279 223.306C540.327 221.634 541.366 218.435 543.929 218.23L547.945 217.908C549.025 217.821 549.966 217.138 550.383 216.137L551.93 212.417Z" fill="#52A2FF"/>
<path d="M584.311 212.417C585.298 210.043 588.661 210.043 589.648 212.417L591.196 216.137C591.612 217.138 592.553 217.821 593.634 217.908L597.649 218.23C600.212 218.435 601.252 221.634 599.299 223.306L596.239 225.927C595.416 226.633 595.057 227.739 595.308 228.793L596.243 232.712C596.839 235.213 594.119 237.19 591.924 235.85L588.486 233.75C587.561 233.185 586.398 233.185 585.473 233.75L582.035 235.85C579.84 237.19 577.12 235.213 577.716 232.712L578.651 228.793C578.903 227.739 578.543 226.633 577.72 225.927L574.66 223.306C572.708 221.634 573.747 218.435 576.31 218.23L580.326 217.908C581.406 217.821 582.347 217.138 582.763 216.137L584.311 212.417Z" fill="#52A2FF"/>
</g>
<defs>
<linearGradient id="paint0_linear_14331_9639" x1="497" y1="362" x2="497" y2="756" gradientUnits="userSpaceOnUse">
<stop stop-color="#E18745"/>
<stop offset="1" stop-color="#D7A37E" stop-opacity="0"/>
</linearGradient>
<clipPath id="clip0_14331_9639">
<rect width="996" height="540" fill="white"/>
</clipPath>
</defs>
</svg>
