<svg width="21" height="18" viewBox="0 0 21 18" fill="none" xmlns="http://www.w3.org/2000/svg">
<path d="M3.33589 10.9674C3.11132 10.7702 2.93167 10.6121 2.8 10.4961V10.4272L2.5364 10.1636C1.49568 9.12289 0.9 7.7482 0.9 6.3V6.11419C0.992203 3.30931 3.3878 1 6.2 1C6.61742 1 7.17124 1.14515 7.72331 1.44242C8.2443 1.72296 8.70161 2.10575 9.00527 2.53263C9.447 3.47241 10.8087 3.45549 11.2173 2.48186C11.4689 2.04139 11.9099 1.64325 12.4384 1.34853C12.9898 1.041 13.5395 0.9 13.9 0.9C16.794 0.9 19.1075 3.19113 19.2 6.11371V6.3C19.2 7.86302 18.5949 9.21709 17.5918 10.1366L17.3 10.4041V10.4694C17.1484 10.5979 16.9529 10.7665 16.7251 10.9646C16.2194 11.4044 15.5422 12 14.8049 12.6498C14.5685 12.8582 14.3258 13.0722 14.0805 13.2885C12.7961 14.4212 11.4391 15.6178 10.519 16.4126C10.2542 16.6291 9.84581 16.6291 9.58102 16.4126C8.48271 15.464 6.73879 13.9443 5.25475 12.6473C4.51131 11.9976 3.8337 11.4043 3.33589 10.9674Z" stroke="#6B7280" stroke-width="1.8"/>
</svg>
