<svg width="153" height="51" viewBox="0 0 153 51" fill="none" xmlns="http://www.w3.org/2000/svg">
<rect y="5.01682" width="40" height="40.1354" rx="11.1782" fill="#3692FF"/>
<path d="M19.3158 16.1911C19.8151 17.9166 18.4949 19.8179 16.9816 20.2588C15.4683 20.6996 13.4008 19.7852 12.9015 18.0598C12.4022 16.3343 13.4504 13.9435 14.9637 13.5026C16.9816 12.9148 18.8165 14.4656 19.3158 16.1911Z" fill="#222327"/>
<path d="M20.1471 16.1911C19.6478 17.9166 20.968 19.8179 22.4813 20.2588C23.9946 20.6996 26.0621 19.7852 26.5614 18.0598C27.0607 16.3343 26.0125 13.9435 24.4992 13.5026C22.4813 12.9148 20.6464 14.4656 20.1471 16.1911Z" fill="#222327"/>
<path d="M29.5172 28.7967C29.5172 33.1855 25.2138 34.8169 19.3437 34.8169C13.4736 34.8169 9.26758 33.1855 9.26758 28.7967C9.26758 23.6915 13.4736 19.1644 19.3437 19.1644C25.2138 19.1644 29.5172 23.3063 29.5172 28.7967Z" fill="#F3D6DD"/>
<path d="M17.4003 27.9301C17.4003 29.3675 16.4777 30.9444 15.1884 30.9444C13.8991 30.9444 11.8164 29.7732 11.8164 27.626C11.8164 25.609 14.0664 24.8916 16.3913 25.26C17.8163 25.4857 17.4003 26.4927 17.4003 27.9301Z" fill="#222327"/>
<path d="M16.3211 27.785C16.3211 28.0007 16.2563 28.1754 15.932 28.1754C15.6078 28.1754 15.543 28.0007 15.543 27.785C15.543 27.5694 15.6727 27.3947 15.932 27.3947C16.1914 27.3947 16.3211 27.5694 16.3211 27.785Z" fill="white"/>
<path d="M21.3223 27.9302C21.3223 29.3676 22.2449 30.9445 23.5342 30.9445C24.8235 30.9445 26.9062 29.7733 26.9062 27.6261C26.9062 25.6091 24.6563 24.8917 22.3313 25.2601C20.9064 25.4858 21.3223 26.4928 21.3223 27.9302Z" fill="#222327"/>
<path d="M22.4015 27.785C22.4015 28.0007 22.4664 28.1754 22.7906 28.1754C23.1148 28.1754 23.1797 28.0007 23.1797 27.785C23.1797 27.5694 23.05 27.3947 22.7906 27.3947C22.5312 27.3947 22.4015 27.5694 22.4015 27.785Z" fill="white"/>
<path d="M17.8754 30.0092C17.7969 29.8946 17.6404 29.8654 17.5258 29.9439C17.4112 30.0224 17.382 30.1789 17.4605 30.2935L17.8754 30.0092ZM19.3179 29.6999L19.5559 29.6183C19.521 29.5167 19.4254 29.4484 19.3179 29.4484C19.2104 29.4484 19.1148 29.5167 19.08 29.6183L19.3179 29.6999ZM21.1754 30.2935C21.2539 30.1789 21.2246 30.0224 21.1101 29.9439C20.9955 29.8654 20.8389 29.8946 20.7604 30.0092L21.1754 30.2935ZM17.4605 30.2935C17.53 30.3949 17.6562 30.5309 17.8254 30.6431C17.9962 30.7564 18.2244 30.8544 18.493 30.8544V30.3514C18.349 30.3514 18.2163 30.2988 18.1035 30.224C17.9891 30.1481 17.9091 30.0583 17.8754 30.0092L17.4605 30.2935ZM18.493 30.8544C18.8235 30.8544 19.0693 30.6186 19.2223 30.4156C19.3838 30.2013 19.498 29.9502 19.5559 29.7814L19.08 29.6183C19.0347 29.7505 18.9427 29.951 18.8206 30.1129C18.69 30.2861 18.5749 30.3514 18.493 30.3514V30.8544ZM19.08 29.7814C19.1379 29.9502 19.252 30.2013 19.4136 30.4156C19.5666 30.6186 19.8124 30.8544 20.1429 30.8544V30.3514C20.061 30.3514 19.9459 30.2861 19.8153 30.1129C19.6932 29.951 19.6011 29.7505 19.5559 29.6183L19.08 29.7814ZM20.1429 30.8544C20.4115 30.8544 20.6397 30.7564 20.8105 30.6431C20.9797 30.5309 21.1059 30.3949 21.1754 30.2935L20.7604 30.0092C20.7268 30.0583 20.6467 30.1481 20.5324 30.224C20.4196 30.2988 20.2868 30.3514 20.1429 30.3514V30.8544Z" fill="#222327"/>
<path d="M20.6903 29.4678C20.6903 29.677 19.7483 29.9433 19.4313 30.027C19.3635 30.0449 19.2936 30.0449 19.2259 30.027C18.9088 29.9433 17.9668 29.677 17.9668 29.4678C17.9668 29.2162 18.7197 28.9472 19.3286 28.9472C19.9374 28.9472 20.6903 29.2162 20.6903 29.4678Z" fill="#222327"/>
<path d="M19.1675 22.7767C15.3833 22.7767 13.9926 21.4472 13.7676 20.6696L15.5675 18.7131L19.4675 18.0358L24.8674 20.6696C24.5424 21.2967 22.9559 22.7767 19.1675 22.7767Z" fill="#222327"/>
<path fill-rule="evenodd" clip-rule="evenodd" d="M19.6908 36.9995C27.5108 36.9995 33.2437 34.7956 33.2437 28.8663C33.2437 21.4488 27.5108 15.8531 19.6908 15.8531C11.8708 15.8531 6.26758 21.9693 6.26758 28.8663C6.26758 34.7956 11.8708 36.9995 19.6908 36.9995ZM19.3833 34.7225C25.1355 34.7225 29.3525 33.1085 29.3525 28.7664C29.3525 23.3345 25.1355 19.2368 19.3833 19.2368C13.6311 19.2368 9.50951 23.7157 9.50951 28.7664C9.50951 33.1085 13.6311 34.7225 19.3833 34.7225Z" fill="white"/>
<path d="M70.8926 22.152H73.9685V25.7406H70.8926V33.0204H66.2786V28.509C62.9976 29.1754 59.7422 29.5343 55.0001 29.5343H49.6171V26.0226H51.6678V18.7428H50.1298V15.2823H64.2792V18.7428H62.7413V25.6381C63.9973 25.4843 65.1764 25.3048 66.2786 25.0998V15.026H70.8926V22.152ZM52.1548 39.121V31.508H56.8713V35.5581H71.4052V39.121H52.1548ZM56.2817 26.0226C56.9225 25.9969 57.5377 25.9969 58.1273 25.9713V18.7428H56.2817V26.0226ZM99.6016 23.9463V27.5349H96.5256V39.121H91.9117V35.0967C88.6306 36.0451 85.3752 36.5834 80.6331 36.5834H76.0192V15.795H89.1433V19.2554H80.6331V33.0716C85.324 33.0716 88.6563 32.6103 91.9117 31.6875V15.026H96.5256V23.9463H99.6016ZM125.235 23.9463V27.5349H122.159V39.121H117.545V15.026H122.159V23.9463H125.235ZM101.652 36.5834V15.795H115.058V36.5834H101.652ZM106.266 33.0716H110.496V19.3067H106.266V33.0716ZM144.844 15.026H149.33V28.9191H144.844V15.026ZM125.747 26.1764C128.746 25.5612 131.002 24.6127 132.258 23.408L127.285 23.7156V20.3833H133.335V18.7428H127.798V15.2823H137.821V19.8962H139.282V15.1541H143.639V28.9191H139.282V23.4849H137.154C135.795 26.1251 132.386 28.3039 127.208 29.6112L125.747 26.1764ZM128.541 35.4555C134.873 35.2248 136.718 33.9175 136.718 31.6875V29.7393H141.332V32.0976C141.332 32.7128 141.255 33.3023 141.102 33.8406C144.075 34.0457 147.023 34.4558 149.33 34.9941L148.099 39.121C145.459 38.1983 141.768 37.3011 138.795 36.8141C136.667 38.2495 133.258 38.9416 129.028 39.121L128.541 35.4555Z" fill="#3692FF"/>
</svg>
